<?xml version="1.0" encoding="utf-8"?>
<!-- Generator: Adobe Illustrator 22.1.0, SVG Export Plug-In . SVG Version: 6.00 Build 0)  -->
<svg version="1.1" id="图层_1" xmlns="http://www.w3.org/2000/svg" xmlns:xlink="http://www.w3.org/1999/xlink" x="0px" y="0px"
	 viewBox="0 0 320 320" style="enable-background:new 0 0 320 320;" xml:space="preserve">
<style type="text/css">
	.st0{fill:#3A4AD3;}
	.st1{fill:#FFFFFF;}
</style>
<path class="st0" d="M320,160c0-20.2-3.8-40.1-11.2-58.9c-8-20.3-20.2-38.8-35.6-54.2c-15.5-15.5-33.9-27.6-54.2-35.6
	C200.1,3.8,180.2,0,160,0c-20.2,0-40.1,3.8-58.9,11.2c-20.3,8-38.8,20.2-54.2,35.6c-15.5,15.5-27.6,33.9-35.6,54.2
	C3.8,119.9,0,139.8,0,160c0,20.2,3.8,40.1,11.2,58.9c8,20.3,20.2,38.8,35.6,54.2c15.5,15.5,33.9,27.6,54.2,35.6
	c18.8,7.4,38.7,11.2,58.9,11.2c20.2,0,40.1-3.8,58.9-11.2c20.3-8,38.8-20.2,54.2-35.6c15.5-15.5,27.6-33.9,35.6-54.2
	C316.2,200.1,320,180.2,320,160z"/>
<path class="st1" d="M69.6,163.1c-2.7,3.5-2,8.6,1.5,11.3c24.1,18.4,48.2,36.9,72.3,55.3c3.4,2.6,8.2,2.1,10.9-1.1
	c32.1-36.9,64.3-73.9,96.4-110.8c2.9-3.3,2.6-8.4-0.8-11.3c-4.6-4-9.2-8-13.8-12c-3.3-2.9-8.4-2.6-11.3,0.8
	c-25.1,28.8-50.1,57.6-75.2,86.5c-2.8,3.2-7.6,3.7-10.9,1.1c-15.6-11.9-31.1-23.8-46.7-35.7c-3.5-2.7-8.6-2-11.3,1.5
	C77,153.4,73.3,158.3,69.6,163.1z"/>
</svg>
