<?xml version="1.0" encoding="utf-8"?>
<!-- Generator: Adobe Illustrator 22.1.0, SVG Export Plug-In . SVG Version: 6.00 Build 0)  -->
<svg version="1.1" id="图层_1" xmlns="http://www.w3.org/2000/svg" xmlns:xlink="http://www.w3.org/1999/xlink" x="0px" y="0px"
	 viewBox="0 0 320 320" style="enable-background:new 0 0 320 320;" xml:space="preserve">
<style type="text/css">
	.st0{fill:#FFC248;}
	.st1{fill:#FFFFFF;}
</style>
<path class="st0" d="M320.3,159.8c0-20.2-3.8-40.2-11.2-58.9C301,80.5,288.9,62,273.4,46.6c-15.5-15.5-33.9-27.6-54.3-35.7
	c-18.8-7.4-38.8-11.2-58.9-11.2c-20.2,0-40.2,3.8-58.9,11.2c-20.3,8.1-38.8,20.2-54.3,35.7C31.4,62,19.3,80.5,11.2,100.8
	C3.8,119.6,0,139.6,0,159.8C0,180,3.8,200,11.2,218.7c8.1,20.3,20.2,38.8,35.7,54.3c15.5,15.5,33.9,27.6,54.3,35.7
	c18.8,7.4,38.8,11.2,58.9,11.2c20.2,0,40.2-3.8,58.9-11.2c20.3-8.1,38.8-20.2,54.3-35.7c15.5-15.5,27.6-33.9,35.7-54.3
	C316.5,200,320.3,180,320.3,159.8z"/>
<path class="st1" d="M264.7,152.3c-0.1-1.8-1.1-3.3-2.6-4.2c-3.3-1.9-6.7-3.5-10.3-4.6c-1.8-0.6-3.6-1-5.5-1.3
	c-1.5-0.2-4.1-0.5-5.6-0.2c-1.3,0.2-2.5,0.5-3.8,0.7c-2.7,0.5-5.4-1.1-6.1-3.7c-1.5-5.1-3.5-9.8-6-14.4c-1.3-2.4-0.6-5.4,1.7-7
	c1.1-0.7,2.1-1.4,3.2-2.1c1.3-0.9,3-2.9,3.9-4.1c1.1-1.5,2.1-3.1,3-4.8c1.8-3.4,3-6.9,4-10.5c0.5-1.7,0-3.5-1.1-4.9
	c-3.3-3.8-6.8-7.3-10.6-10.6c-1.3-1.2-3.2-1.6-4.9-1.1c-3.7,1-7.2,2.3-10.5,4c-1.7,0.9-3.3,1.8-4.8,3c-1.2,0.9-3.2,2.5-4.1,3.9
	c-0.7,1.1-1.4,2.1-2.1,3.2c-1.5,2.3-4.5,3-7,1.7c-4.6-2.5-9.4-4.5-14.4-6c-2.6-0.8-4.2-3.4-3.7-6.1c0.2-1.3,0.5-2.5,0.7-3.8
	c0.3-1.6,0.1-4.1-0.2-5.6c-0.3-1.9-0.7-3.7-1.3-5.5c-1.1-3.6-2.7-7-4.6-10.3c-0.9-1.5-2.5-2.5-4.2-2.6c-5-0.4-10-0.4-15,0
	c-1.8,0.1-3.3,1.1-4.2,2.6c-1.9,3.3-3.5,6.7-4.6,10.3c-0.6,1.8-1,3.6-1.3,5.5c-0.2,1.5-0.5,4.1-0.2,5.6c0.2,1.3,0.5,2.5,0.7,3.8
	c0.5,2.7-1.1,5.4-3.7,6.1c-5.1,1.5-9.8,3.5-14.4,6c-2.4,1.3-5.4,0.6-7-1.7c-0.7-1.1-1.4-2.1-2.1-3.2c-0.9-1.3-2.9-3-4.1-3.9
	c-1.5-1.1-3.1-2.1-4.8-3c-3.4-1.8-6.9-3-10.5-4c-1.7-0.5-3.5,0-4.9,1.1c-3.8,3.3-7.3,6.8-10.6,10.6c-1.2,1.3-1.6,3.2-1.1,4.9
	c1,3.7,2.3,7.2,4,10.5c0.9,1.7,1.8,3.3,3,4.8c0.9,1.2,2.5,3.2,3.9,4.1c1.1,0.7,2.1,1.4,3.2,2.1c2.3,1.5,3,4.5,1.7,7
	c-2.5,4.6-4.5,9.4-6,14.4c-0.8,2.6-3.4,4.2-6.1,3.7c-1.3-0.2-2.5-0.5-3.8-0.7c-1.6-0.3-4.1-0.1-5.6,0.2c-1.9,0.3-3.7,0.7-5.5,1.3
	c-3.6,1.1-7,2.7-10.3,4.6c-1.5,0.9-2.5,2.5-2.6,4.2c-0.4,5-0.4,10,0,15c0.1,1.8,1.1,3.3,2.6,4.2c3.3,1.9,6.7,3.5,10.3,4.6
	c1.8,0.6,3.6,1,5.5,1.3c1.5,0.2,4.1,0.5,5.6,0.2c1.3-0.2,2.5-0.5,3.8-0.7c2.7-0.5,5.4,1.1,6.1,3.7c1.5,5.1,3.5,9.8,6,14.4
	c1.3,2.4,0.6,5.4-1.7,7c-1.1,0.7-2.1,1.4-3.2,2.1c-1.3,0.9-3,2.9-3.9,4.1c-1.1,1.5-2.1,3.1-3,4.8c-1.8,3.4-3,6.9-4,10.5
	c-0.5,1.7,0,3.5,1.1,4.9c3.3,3.8,6.8,7.3,10.6,10.6c1.3,1.2,3.2,1.6,4.9,1.1c3.7-1,7.2-2.3,10.5-4c1.7-0.9,3.3-1.8,4.8-3
	c1.2-0.9,3.2-2.5,4.1-3.9c0.7-1.1,1.4-2.1,2.1-3.2c1.5-2.3,4.5-3,7-1.7c4.6,2.5,9.4,4.5,14.4,6c2.6,0.8,4.2,3.4,3.7,6.1
	c-0.2,1.3-0.5,2.5-0.7,3.8c-0.3,1.6-0.1,4.1,0.2,5.6c0.3,1.9,0.7,3.7,1.3,5.5c1.1,3.6,2.7,7,4.6,10.3c0.9,1.5,2.5,2.5,4.2,2.6
	c5,0.4,10,0.4,15,0c1.8-0.1,3.3-1.1,4.2-2.6c1.9-3.3,3.5-6.7,4.6-10.3c0.6-1.8,1-3.6,1.3-5.5c0.2-1.5,0.5-4.1,0.2-5.6
	c-0.2-1.3-0.5-2.5-0.7-3.8c-0.5-2.7,1.1-5.4,3.7-6.1c5.1-1.5,9.8-3.5,14.4-6c2.4-1.3,5.4-0.6,7,1.7c0.7,1.1,1.4,2.1,2.1,3.2
	c0.9,1.3,2.9,3,4.1,3.9c1.5,1.1,3.1,2.1,4.8,3c3.4,1.8,6.9,3,10.5,4c1.7,0.5,3.5,0,4.9-1.1c3.8-3.3,7.3-6.8,10.6-10.6
	c1.2-1.3,1.6-3.2,1.1-4.9c-1-3.7-2.3-7.2-4-10.5c-0.9-1.7-1.8-3.3-3-4.8c-0.9-1.2-2.5-3.2-3.9-4.1c-1.1-0.7-2.1-1.4-3.2-2.1
	c-2.3-1.5-3-4.5-1.7-7c2.5-4.6,4.5-9.4,6-14.4c0.8-2.6,3.4-4.2,6.1-3.7c1.3,0.2,2.5,0.5,3.8,0.7c1.6,0.3,4.1,0.1,5.6-0.2
	c1.9-0.3,3.7-0.7,5.5-1.3c3.6-1.1,7-2.7,10.3-4.6c1.5-0.9,2.5-2.5,2.6-4.2C265.1,162.3,265.1,157.3,264.7,152.3z M195.2,194.8
	c-9.3,9.3-21.9,14.5-35.1,14.5c-13.2,0-25.7-5.2-35.1-14.5c-9.3-9.3-14.5-21.9-14.5-35.1c0-13.2,5.2-25.7,14.5-35.1
	c9.3-9.3,21.9-14.5,35.1-14.5c13.2,0,25.7,5.2,35.1,14.5c9.3,9.3,14.5,21.9,14.5,35.1C209.7,173,204.5,185.5,195.2,194.8z"/>
</svg>
